<?xml version="1.0" encoding="UTF-8" standalone="no" ?>
<!DOCTYPE svg PUBLIC "-//W3C//DTD SVG 1.1//EN" "http://www.w3.org/Graphics/SVG/1.1/DTD/svg11.dtd">
<svg xmlns="http://www.w3.org/2000/svg" xmlns:xlink="http://www.w3.org/1999/xlink" version="1.1" width="106" height="52" viewBox="0 0 106 52" xml:space="preserve">
<desc>Created with Fabric.js 5.2.4</desc>
<defs>
</defs>
<g transform="matrix(1 0 0 1 53 26)" id="ee4bfa7f-b045-47bf-a773-8366c6630569"  >
<rect style="stroke: none; stroke-width: 1; stroke-dasharray: none; stroke-linecap: butt; stroke-dashoffset: 0; stroke-linejoin: miter; stroke-miterlimit: 4; fill: rgb(255,255,255); fill-rule: nonzero; opacity: 1; visibility: hidden;" vector-effect="non-scaling-stroke"  x="-53" y="-26" rx="0" ry="0" width="106" height="52" />
</g>
<g transform="matrix(Infinity NaN NaN Infinity 0 0)" id="f9279c92-d8d6-4a30-bbcc-e2bd82113c08"  >
</g>
<g transform="matrix(0.1 0 0 0.1 53 26)"  >
<g style="" vector-effect="non-scaling-stroke"   >
		<g transform="matrix(1 0 0 1 -260.92 171.83)"  >
<path style="stroke: none; stroke-width: 1; stroke-dasharray: none; stroke-linecap: butt; stroke-dashoffset: 0; stroke-linejoin: miter; stroke-miterlimit: 4; fill: rgb(103,78,167); fill-rule: nonzero; opacity: 1;" vector-effect="non-scaling-stroke"  transform=" translate(-239.07, -533.83)" d="M 245.94 527.85 C 245.09 527.0500000000001 244.06 526.4300000000001 242.82 525.98 C 241.6 525.52 240.19 525.29 238.59 525.29 L 229.66 525.29 L 229.66 542.36 L 238.59 542.36 C 240.19 542.36 241.6 542.13 242.82 541.6800000000001 C 244.04999999999998 541.23 245.07999999999998 540.6200000000001 245.94 539.84 C 246.78 539.0500000000001 247.42 538.15 247.85 537.1 C 248.28 536.07 248.48999999999998 534.99 248.48999999999998 533.83 C 248.48999999999998 532.6700000000001 248.29 531.61 247.85 530.59 C 247.42 529.5600000000001 246.78 528.65 245.94 527.85 Z M 244.32 535.78 C 244.09 536.42 243.70999999999998 536.97 243.20999999999998 537.4599999999999 C 242.70999999999998 537.9599999999999 242.07 538.3499999999999 241.29 538.6399999999999 C 240.51999999999998 538.9199999999998 239.57999999999998 539.0599999999998 238.5 539.0599999999998 L 233.32 539.0599999999998 L 233.32 528.5799999999998 L 238.5 528.5799999999998 C 239.58 528.5799999999998 240.52 528.7299999999998 241.29 529.0099999999998 C 242.07999999999998 529.3099999999997 242.70999999999998 529.6999999999998 243.20999999999998 530.1999999999998 C 243.70999999999998 530.6899999999998 244.08999999999997 531.2399999999998 244.32 531.8699999999998 C 244.54999999999998 532.4799999999998 244.67 533.1299999999998 244.67 533.8199999999998 C 244.67 534.5099999999999 244.54999999999998 535.1499999999999 244.32 535.7699999999999 Z" stroke-linecap="round" />
</g>
		<g transform="matrix(1 0 0 1 -232.25 171.83)"  >
<polygon style="stroke: none; stroke-width: 1; stroke-dasharray: none; stroke-linecap: butt; stroke-dashoffset: 0; stroke-linejoin: miter; stroke-miterlimit: 4; fill: rgb(103,78,167); fill-rule: nonzero; opacity: 1;" vector-effect="non-scaling-stroke"  points="-3.97,1.39 6.21,1.39 6.21,-1.73 -3.97,-1.73 -3.97,-5.31 7.38,-5.31 7.38,-8.53 -7.56,-8.53 -7.56,8.53 7.56,8.53 7.56,5.31 -3.97,5.31 -3.97,1.39 " />
</g>
		<g transform="matrix(1 0 0 1 -205.72 171.83)"  >
<polygon style="stroke: none; stroke-width: 1; stroke-dasharray: none; stroke-linecap: butt; stroke-dashoffset: 0; stroke-linejoin: miter; stroke-miterlimit: 4; fill: rgb(103,78,167); fill-rule: nonzero; opacity: 1;" vector-effect="non-scaling-stroke"  points="-8.57,-5.24 -1.9,-5.24 -1.9,8.53 1.76,8.53 1.76,-5.24 8.58,-5.24 8.58,-8.53 -8.57,-8.53 -8.57,-5.24 " />
</g>
		<g transform="matrix(1 0 0 1 -178.54 171.83)"  >
<polygon style="stroke: none; stroke-width: 1; stroke-dasharray: none; stroke-linecap: butt; stroke-dashoffset: 0; stroke-linejoin: miter; stroke-miterlimit: 4; fill: rgb(103,78,167); fill-rule: nonzero; opacity: 1;" vector-effect="non-scaling-stroke"  points="-3.97,1.39 6.22,1.39 6.22,-1.73 -3.97,-1.73 -3.97,-5.31 7.38,-5.31 7.38,-8.53 -7.56,-8.53 -7.56,8.53 7.56,8.53 7.56,5.31 -3.97,5.31 -3.97,1.39 " />
</g>
		<g transform="matrix(1 0 0 1 -150.79 171.8)"  >
<path style="stroke: none; stroke-width: 1; stroke-dasharray: none; stroke-linecap: butt; stroke-dashoffset: 0; stroke-linejoin: miter; stroke-miterlimit: 4; fill: rgb(103,78,167); fill-rule: nonzero; opacity: 1;" vector-effect="non-scaling-stroke"  transform=" translate(-349.21, -533.79)" d="M 345.81 529.82 C 346.42 529.37 347.09 529.0100000000001 347.83 528.7700000000001 C 348.57 528.5300000000001 349.32 528.4000000000001 350.08 528.4000000000001 C 351.01 528.4000000000001 351.84 528.5000000000001 352.58 528.71 C 353.32 528.9100000000001 353.99 529.1800000000001 354.59999999999997 529.5300000000001 C 355.21 529.8700000000001 355.76 530.2400000000001 356.23999999999995 530.6500000000001 L 358.34 527.7200000000001 C 357.78999999999996 527.2300000000001 357.09 526.7900000000002 356.26 526.3800000000001 C 355.42 525.9800000000001 354.5 525.6500000000001 353.49 525.3900000000001 C 352.48 525.1400000000001 351.44 525.0100000000001 350.35 525.0100000000001 C 348.94 525.0100000000001 347.61 525.2200000000001 346.37 525.6400000000001 C 345.13 526.0600000000001 344.03000000000003 526.6700000000001 343.09000000000003 527.45 C 342.15000000000003 528.24 341.41 529.1700000000001 340.87 530.23 C 340.33 531.29 340.07 532.47 340.07 533.75 C 340.07 535.03 340.33 536.27 340.86 537.36 C 341.39 538.45 342.12 539.38 343.07 540.16 C 344.01 540.9399999999999 345.11 541.54 346.36 541.9499999999999 C 347.61 542.3599999999999 348.95 542.5699999999999 350.38 542.5699999999999 C 351.55 542.5699999999999 352.65 542.42 353.67 542.1199999999999 C 354.69 541.8199999999999 355.61 541.4499999999999 356.41 541.0099999999999 C 357.21000000000004 540.5699999999998 357.86 540.1699999999998 358.35 539.7899999999998 L 356.6 536.8899999999999 C 356.16 537.1999999999998 355.66 537.5299999999999 355.09000000000003 537.8999999999999 C 354.52000000000004 538.2599999999999 353.87 538.5699999999998 353.14000000000004 538.8299999999998 C 352.41 539.0799999999998 351.57000000000005 539.2099999999998 350.63000000000005 539.2099999999998 C 349.77000000000004 539.2099999999998 348.93000000000006 539.0999999999998 348.12000000000006 538.8699999999998 C 347.31000000000006 538.6399999999998 346.58000000000004 538.2999999999997 345.93000000000006 537.8499999999998 C 345.2800000000001 537.3999999999999 344.76000000000005 536.8299999999998 344.38000000000005 536.1399999999998 C 344.00000000000006 535.4599999999998 343.81000000000006 534.6699999999997 343.81000000000006 533.7799999999997 C 343.81000000000006 532.9399999999997 343.99000000000007 532.1799999999997 344.36000000000007 531.4999999999998 C 344.7300000000001 530.8299999999998 345.2100000000001 530.2599999999998 345.82000000000005 529.8099999999997 Z" stroke-linecap="round" />
</g>
		<g transform="matrix(1 0 0 1 -123.47 171.83)"  >
<polygon style="stroke: none; stroke-width: 1; stroke-dasharray: none; stroke-linecap: butt; stroke-dashoffset: 0; stroke-linejoin: miter; stroke-miterlimit: 4; fill: rgb(103,78,167); fill-rule: nonzero; opacity: 1;" vector-effect="non-scaling-stroke"  points="-8.57,-5.24 -1.89,-5.24 -1.89,8.53 1.75,8.53 1.75,-5.24 8.58,-5.24 8.58,-8.53 -8.57,-8.53 -8.57,-5.24 " />
</g>
		<g transform="matrix(1 0 0 1 -97.08 171.83)"  >
<polygon style="stroke: none; stroke-width: 1; stroke-dasharray: none; stroke-linecap: butt; stroke-dashoffset: 0; stroke-linejoin: miter; stroke-miterlimit: 4; fill: rgb(103,78,167); fill-rule: nonzero; opacity: 1;" vector-effect="non-scaling-stroke"  points="-6.38,-5.21 -1.82,-5.21 -1.82,5.22 -6.38,5.22 -6.38,8.53 6.39,8.53 6.39,5.22 1.83,5.22 1.83,-5.21 6.39,-5.21 6.39,-8.53 -6.38,-8.53 -6.38,-5.21 " />
</g>
		<g transform="matrix(1 0 0 1 -67.89 171.84)"  >
<path style="stroke: none; stroke-width: 1; stroke-dasharray: none; stroke-linecap: butt; stroke-dashoffset: 0; stroke-linejoin: miter; stroke-miterlimit: 4; fill: rgb(103,78,167); fill-rule: nonzero; opacity: 1;" vector-effect="non-scaling-stroke"  transform=" translate(-432.11, -533.83)" d="M 438.03 529.95 C 438.03 530.47 438.03 530.99 438.03999999999996 531.5 C 438.03999999999996 532.01 438.05999999999995 532.53 438.09 533.06 C 438.11999999999995 533.5899999999999 438.14 534.1199999999999 438.17999999999995 534.67 C 438.2099999999999 535.2199999999999 438.25999999999993 535.77 438.30999999999995 536.3299999999999 C 438.34999999999997 536.7299999999999 438.3999999999999 537.1399999999999 438.4599999999999 537.55 L 426.11999999999995 525.3 L 422.60999999999996 525.3 L 422.60999999999996 542.3599999999999 L 426.18999999999994 542.3599999999999 L 426.18999999999994 536.2199999999999 C 426.18999999999994 535.5999999999999 426.17999999999995 535.0099999999999 426.1499999999999 534.4599999999999 C 426.12999999999994 533.9 426.0999999999999 533.3799999999999 426.05999999999995 532.8899999999999 C 426.03 532.3999999999999 425.98999999999995 531.9499999999998 425.93999999999994 531.5399999999998 C 425.88999999999993 531.1299999999999 425.84999999999997 530.7499999999999 425.80999999999995 530.4199999999998 C 425.80999999999995 530.3599999999999 425.79999999999995 530.3199999999998 425.78999999999996 530.2699999999999 L 438.04999999999995 542.3699999999999 L 441.60999999999996 542.3699999999999 L 441.60999999999996 525.31 L 438.03 525.31 L 438.03 529.9599999999999 Z" stroke-linecap="round" />
</g>
		<g transform="matrix(1 0 0 1 -36.33 171.82)"  >
<path style="stroke: none; stroke-width: 1; stroke-dasharray: none; stroke-linecap: butt; stroke-dashoffset: 0; stroke-linejoin: miter; stroke-miterlimit: 4; fill: rgb(103,78,167); fill-rule: nonzero; opacity: 1;" vector-effect="non-scaling-stroke"  transform=" translate(-463.67, -533.81)" d="M 473.95 534 C 473.93 533.77 473.92 533.53 473.9 533.28 L 463.81 533.28 L 463.81 536.28 L 470.22 536.28 C 470.17 536.61 470.06 536.92 469.85 537.22 C 469.53000000000003 537.65 469.09000000000003 538.02 468.51000000000005 538.33 C 467.93000000000006 538.64 467.25000000000006 538.88 466.4800000000001 539.0400000000001 C 465.7000000000001 539.2 464.86000000000007 539.2800000000001 463.9700000000001 539.2800000000001 C 463.0800000000001 539.2800000000001 462.2300000000001 539.1800000000001 461.4200000000001 538.9700000000001 C 460.61000000000007 538.7700000000001 459.8900000000001 538.4500000000002 459.25000000000006 538.0200000000001 C 458.61000000000007 537.5900000000001 458.1000000000001 537.0200000000001 457.7300000000001 536.3100000000001 C 457.36000000000007 535.6 457.1700000000001 534.7500000000001 457.1700000000001 533.7600000000001 C 457.1700000000001 532.9800000000001 457.3400000000001 532.2600000000001 457.69000000000005 531.5900000000001 C 458.0400000000001 530.9200000000002 458.53000000000003 530.3500000000001 459.1600000000001 529.8600000000001 C 459.7900000000001 529.3700000000001 460.5300000000001 528.9900000000001 461.37000000000006 528.7100000000002 C 462.21000000000004 528.4300000000002 463.11000000000007 528.3000000000002 464.0900000000001 528.3000000000002 C 464.9000000000001 528.3000000000002 465.6700000000001 528.3900000000002 466.4100000000001 528.5800000000002 C 467.1400000000001 528.7700000000002 467.81000000000006 529.0200000000002 468.43000000000006 529.3200000000002 C 469.05000000000007 529.6300000000001 469.61000000000007 529.9800000000001 470.14000000000004 530.3700000000001 L 472.41 527.8400000000001 C 471.92 527.3500000000001 471.27000000000004 526.9000000000001 470.45000000000005 526.4800000000001 C 469.63000000000005 526.0600000000002 468.69000000000005 525.7100000000002 467.64000000000004 525.4300000000002 C 466.58000000000004 525.1500000000002 465.42 525.0200000000002 464.13000000000005 525.0200000000002 C 462.59000000000003 525.0200000000002 461.16 525.2400000000002 459.84000000000003 525.6800000000002 C 458.52000000000004 526.1200000000002 457.38000000000005 526.7300000000001 456.40000000000003 527.5200000000002 C 455.43 528.3100000000002 454.67 529.2300000000002 454.14000000000004 530.3000000000002 C 453.6 531.3600000000001 453.33000000000004 532.5200000000002 453.33000000000004 533.7700000000002 C 453.33000000000004 535.2500000000002 453.59000000000003 536.5300000000002 454.12000000000006 537.6300000000002 C 454.65000000000003 538.7300000000002 455.38000000000005 539.6400000000002 456.30000000000007 540.3700000000002 C 457.2300000000001 541.1000000000003 458.31000000000006 541.6500000000002 459.55000000000007 542.0300000000002 C 460.7900000000001 542.4000000000002 462.13000000000005 542.5900000000001 463.56000000000006 542.5900000000001 C 465.12000000000006 542.5900000000001 466.5400000000001 542.4300000000002 467.82000000000005 542.1100000000001 C 469.1 541.7900000000001 470.20000000000005 541.3200000000002 471.12000000000006 540.6800000000002 C 472.0400000000001 540.0500000000002 472.75000000000006 539.2600000000002 473.25000000000006 538.3000000000002 C 473.75000000000006 537.3500000000001 474.01000000000005 536.2300000000001 474.01000000000005 534.9500000000002 C 474.01000000000005 534.8800000000001 474.01000000000005 534.7700000000002 474.00000000000006 534.6000000000001 C 474.00000000000006 534.4300000000002 473.9800000000001 534.2300000000001 473.96000000000004 533.9900000000001 Z" stroke-linecap="round" />
</g>
		<g transform="matrix(1 0 0 1 11.04 171.83)"  >
<path style="stroke: none; stroke-width: 1; stroke-dasharray: none; stroke-linecap: butt; stroke-dashoffset: 0; stroke-linejoin: miter; stroke-miterlimit: 4; fill: rgb(103,78,167); fill-rule: nonzero; opacity: 1;" vector-effect="non-scaling-stroke"  transform=" translate(-511.04, -533.83)" d="M 517.51 533.62 C 517.05 533.38 516.56 533.19 516.06 533.02 C 516.8199999999999 532.75 517.4699999999999 532.4 517.89 531.91 C 518.47 531.25 518.76 530.4499999999999 518.76 529.5 C 518.76 528.63 518.5 527.87 518 527.24 C 517.48 526.6 516.73 526.13 515.72 525.79 C 514.73 525.4599999999999 513.48 525.29 512.01 525.29 L 502.40999999999997 525.29 L 502.40999999999997 542.36 L 512.64 542.36 C 513.4399999999999 542.36 514.24 542.28 515.0699999999999 542.13 C 515.8799999999999 541.97 516.66 541.71 517.3499999999999 541.33 C 518.05 540.96 518.6099999999999 540.44 519.0299999999999 539.7700000000001 C 519.4499999999998 539.1100000000001 519.6699999999998 538.2700000000001 519.6699999999998 537.2400000000001 C 519.6699999999998 536.3900000000001 519.4699999999998 535.6500000000001 519.0699999999998 535.0600000000002 C 518.6599999999999 534.4800000000001 518.1499999999999 534.0000000000002 517.5099999999999 533.6400000000002 Z M 505.92 528.46 L 511.99 528.46 C 512.87 528.46 513.62 528.6 514.21 528.85 C 514.8000000000001 529.1 515.1 529.57 515.1 530.22 C 515.1 530.6 514.96 530.94 514.72 531.21 C 514.46 531.49 514.11 531.7 513.6800000000001 531.85 C 513.22 532 512.73 532.07 512.2 532.07 L 505.91 532.07 L 505.91 528.46 Z M 515.6 538.27 C 515.33 538.5799999999999 514.94 538.81 514.4300000000001 538.96 C 513.94 539.11 513.3700000000001 539.1800000000001 512.74 539.1800000000001 L 505.92 539.1800000000001 L 505.92 534.99 L 512.62 534.99 C 513.11 534.99 513.62 535.04 514.15 535.17 C 514.68 535.29 515.13 535.51 515.48 535.81 C 515.85 536.1099999999999 516.04 536.54 516.04 537.0999999999999 C 516.04 537.56 515.89 537.9499999999999 515.61 538.2799999999999 Z" stroke-linecap="round" />
</g>
		<g transform="matrix(1 0 0 1 39.89 171.85)"  >
<path style="stroke: none; stroke-width: 1; stroke-dasharray: none; stroke-linecap: butt; stroke-dashoffset: 0; stroke-linejoin: miter; stroke-miterlimit: 4; fill: rgb(103,78,167); fill-rule: nonzero; opacity: 1;" vector-effect="non-scaling-stroke"  transform=" translate(-539.89, -533.84)" d="M 544.31 535.6 C 545.26 535.1 546.02 534.4200000000001 546.5699999999999 533.57 C 547.14 532.72 547.41 531.75 547.41 530.6800000000001 C 547.41 529.6100000000001 547.17 528.6600000000001 546.66 527.85 C 546.14 527.0400000000001 545.4399999999999 526.41 544.52 525.97 C 543.61 525.52 542.53 525.2900000000001 541.27 525.2900000000001 L 531.36 525.2900000000001 L 531.36 542.3600000000001 L 534.88 542.3600000000001 L 534.88 536.3700000000001 L 539.58 536.3700000000001 L 544.09 542.3600000000001 L 548.4300000000001 542.3900000000001 L 543.5400000000001 535.9000000000001 C 543.8000000000001 535.8100000000001 544.0600000000001 535.7400000000001 544.3000000000001 535.6200000000001 Z M 542.19 533.05 C 541.74 533.27 541.25 533.38 540.71 533.38 L 534.88 533.38 L 534.88 528.46 L 540.68 528.46 C 541.2199999999999 528.46 541.7099999999999 528.5500000000001 542.17 528.76 C 542.63 528.95 542.9799999999999 529.22 543.25 529.59 C 543.52 529.94 543.66 530.36 543.66 530.84 C 543.66 531.32 543.52 531.76 543.25 532.15 C 542.98 532.53 542.63 532.84 542.18 533.06 Z" stroke-linecap="round" />
</g>
		<g transform="matrix(1 0 0 1 67.28 171.83)"  >
<polygon style="stroke: none; stroke-width: 1; stroke-dasharray: none; stroke-linecap: butt; stroke-dashoffset: 0; stroke-linejoin: miter; stroke-miterlimit: 4; fill: rgb(103,78,167); fill-rule: nonzero; opacity: 1;" vector-effect="non-scaling-stroke"  points="-6.38,-5.21 -1.82,-5.21 -1.82,5.22 -6.38,5.22 -6.38,8.53 6.38,8.53 6.38,5.22 1.84,5.22 1.84,-5.21 6.38,-5.21 6.38,-8.53 -6.38,-8.53 -6.38,-5.21 " />
</g>
		<g transform="matrix(1 0 0 1 94.37 171.83)"  >
<polygon style="stroke: none; stroke-width: 1; stroke-dasharray: none; stroke-linecap: butt; stroke-dashoffset: 0; stroke-linejoin: miter; stroke-miterlimit: 4; fill: rgb(103,78,167); fill-rule: nonzero; opacity: 1;" vector-effect="non-scaling-stroke"  points="-3.75,-8.53 -7.39,-8.53 -7.39,8.53 7.39,8.53 7.39,5.24 -3.75,5.24 -3.75,-8.53 " />
</g>
		<g transform="matrix(1 0 0 1 120.8 171.83)"  >
<polygon style="stroke: none; stroke-width: 1; stroke-dasharray: none; stroke-linecap: butt; stroke-dashoffset: 0; stroke-linejoin: miter; stroke-miterlimit: 4; fill: rgb(103,78,167); fill-rule: nonzero; opacity: 1;" vector-effect="non-scaling-stroke"  points="-3.74,-8.53 -7.4,-8.53 -7.4,8.53 7.4,8.53 7.4,5.24 -3.74,5.24 -3.74,-8.53 " />
</g>
		<g transform="matrix(1 0 0 1 146.62 171.83)"  >
<polygon style="stroke: none; stroke-width: 1; stroke-dasharray: none; stroke-linecap: butt; stroke-dashoffset: 0; stroke-linejoin: miter; stroke-miterlimit: 4; fill: rgb(103,78,167); fill-rule: nonzero; opacity: 1;" vector-effect="non-scaling-stroke"  points="-6.38,-5.21 -1.83,-5.21 -1.83,5.22 -6.38,5.22 -6.38,8.53 6.38,8.53 6.38,5.22 1.83,5.22 1.83,-5.21 6.38,-5.21 6.38,-8.53 -6.38,-8.53 -6.38,-5.21 " />
</g>
		<g transform="matrix(1 0 0 1 174.08 171.83)"  >
<path style="stroke: none; stroke-width: 1; stroke-dasharray: none; stroke-linecap: butt; stroke-dashoffset: 0; stroke-linejoin: miter; stroke-miterlimit: 4; fill: rgb(103,78,167); fill-rule: nonzero; opacity: 1;" vector-effect="non-scaling-stroke"  transform=" translate(-674.08, -533.83)" d="M 672.28 525.29 L 663.85 542.36 L 667.58 542.36 L 669.23 539.03 L 678.8100000000001 539.03 L 680.46 542.36 L 684.3100000000001 542.36 L 675.9300000000001 525.29 L 672.2700000000001 525.29 Z M 670.68 536.09 L 672.8199999999999 531.7800000000001 C 672.9799999999999 531.4300000000001 673.1299999999999 531.1000000000001 673.28 530.8000000000001 C 673.43 530.4900000000001 673.56 530.1800000000001 673.7099999999999 529.86 C 673.8299999999999 529.63 673.93 529.37 674.0199999999999 529.13 C 674.1099999999999 529.36 674.1999999999998 529.58 674.2899999999998 529.81 C 674.4299999999998 530.1099999999999 674.5599999999998 530.42 674.7199999999998 530.7199999999999 C 674.8699999999998 531.0299999999999 675.0299999999997 531.3599999999999 675.1899999999998 531.6999999999999 L 677.3599999999998 536.0899999999999 L 670.6599999999997 536.0899999999999 Z" stroke-linecap="round" />
</g>
		<g transform="matrix(1 0 0 1 204.28 171.84)"  >
<path style="stroke: none; stroke-width: 1; stroke-dasharray: none; stroke-linecap: butt; stroke-dashoffset: 0; stroke-linejoin: miter; stroke-miterlimit: 4; fill: rgb(103,78,167); fill-rule: nonzero; opacity: 1;" vector-effect="non-scaling-stroke"  transform=" translate(-704.28, -533.83)" d="M 710.2 529.95 C 710.2 530.47 710.2 530.99 710.21 531.5 C 710.21 532.01 710.23 532.53 710.26 533.06 C 710.29 533.5899999999999 710.31 534.1199999999999 710.35 534.67 C 710.38 535.2199999999999 710.4300000000001 535.77 710.48 536.3299999999999 C 710.52 536.7299999999999 710.57 537.1399999999999 710.63 537.55 L 698.29 525.3 L 694.78 525.3 L 694.78 542.3599999999999 L 698.36 542.3599999999999 L 698.36 536.2199999999999 C 698.36 535.5999999999999 698.35 535.0099999999999 698.32 534.4599999999999 C 698.3000000000001 533.9 698.2700000000001 533.3799999999999 698.23 532.8899999999999 C 698.2 532.3999999999999 698.16 531.9499999999998 698.11 531.5399999999998 C 698.0600000000001 531.1299999999999 698.02 530.7499999999999 697.98 530.4199999999998 C 697.98 530.3599999999999 697.97 530.3199999999998 697.96 530.2699999999999 L 710.22 542.3699999999999 L 713.78 542.3699999999999 L 713.78 525.31 L 710.1999999999999 525.31 L 710.1999999999999 529.9599999999999 Z" stroke-linecap="round" />
</g>
		<g transform="matrix(1 0 0 1 234.6 171.8)"  >
<path style="stroke: none; stroke-width: 1; stroke-dasharray: none; stroke-linecap: butt; stroke-dashoffset: 0; stroke-linejoin: miter; stroke-miterlimit: 4; fill: rgb(103,78,167); fill-rule: nonzero; opacity: 1;" vector-effect="non-scaling-stroke"  transform=" translate(-734.6, -533.79)" d="M 731.21 529.82 C 731.82 529.37 732.49 529.0100000000001 733.23 528.7700000000001 C 733.97 528.5300000000001 734.72 528.4000000000001 735.48 528.4000000000001 C 736.41 528.4000000000001 737.24 528.5000000000001 737.98 528.71 C 738.72 528.9100000000001 739.39 529.1800000000001 740 529.5300000000001 C 740.61 529.8700000000001 741.16 530.2400000000001 741.64 530.6500000000001 L 743.74 527.7200000000001 C 743.19 527.2300000000001 742.49 526.7900000000002 741.66 526.3800000000001 C 740.8199999999999 525.9800000000001 739.9 525.6500000000001 738.9 525.3900000000001 C 737.89 525.1400000000001 736.84 525.0100000000001 735.76 525.0100000000001 C 734.35 525.0100000000001 733.02 525.2200000000001 731.77 525.6400000000001 C 730.53 526.0600000000001 729.4399999999999 526.6700000000001 728.49 527.45 C 727.55 528.24 726.8100000000001 529.1700000000001 726.27 530.23 C 725.73 531.29 725.46 532.47 725.46 533.75 C 725.46 535.03 725.72 536.27 726.25 537.36 C 726.78 538.45 727.51 539.38 728.46 540.16 C 729.4000000000001 540.9399999999999 730.5 541.54 731.75 541.9499999999999 C 733 542.3599999999999 734.34 542.5699999999999 735.77 542.5699999999999 C 736.9399999999999 542.5699999999999 738.04 542.42 739.06 542.1199999999999 C 740.0799999999999 541.8199999999999 741 541.4499999999999 741.8 541.0099999999999 C 742.6099999999999 540.5699999999998 743.25 540.1699999999998 743.74 539.7899999999998 L 741.99 536.8899999999999 C 741.55 537.1999999999998 741.05 537.5299999999999 740.48 537.8999999999999 C 739.91 538.2599999999999 739.26 538.5699999999998 738.53 538.8299999999998 C 737.8 539.0799999999998 736.9599999999999 539.2099999999998 736.02 539.2099999999998 C 735.16 539.2099999999998 734.3199999999999 539.0999999999998 733.51 538.8699999999998 C 732.7 538.6399999999998 731.97 538.2999999999997 731.3199999999999 537.8499999999998 C 730.67 537.3999999999997 730.15 536.8299999999998 729.77 536.1399999999998 C 729.39 535.4599999999998 729.1999999999999 534.6699999999997 729.1999999999999 533.7799999999997 C 729.1999999999999 532.9399999999997 729.3799999999999 532.1799999999997 729.7499999999999 531.4999999999998 C 730.1099999999999 530.8299999999998 730.5999999999999 530.2599999999998 731.2099999999999 529.8099999999997 Z" stroke-linecap="round" />
</g>
		<g transform="matrix(1 0 0 1 262.79 171.83)"  >
<polygon style="stroke: none; stroke-width: 1; stroke-dasharray: none; stroke-linecap: butt; stroke-dashoffset: 0; stroke-linejoin: miter; stroke-miterlimit: 4; fill: rgb(103,78,167); fill-rule: nonzero; opacity: 1;" vector-effect="non-scaling-stroke"  points="-3.98,1.39 6.21,1.39 6.21,-1.73 -3.98,-1.73 -3.98,-5.31 7.38,-5.31 7.38,-8.53 -7.56,-8.53 -7.56,8.53 7.55,8.53 7.55,5.31 -3.98,5.31 -3.98,1.39 " />
</g>
		<g transform="matrix(1 0 0 1 -263.65 112.63)"  >
<path style="stroke: none; stroke-width: 1; stroke-dasharray: none; stroke-linecap: butt; stroke-dashoffset: 0; stroke-linejoin: miter; stroke-miterlimit: 4; fill: rgb(103,78,167); fill-rule: nonzero; opacity: 1;" vector-effect="non-scaling-stroke"  transform=" translate(-236.34, -474.62)" d="M 256.82 483.26 C 255.6 484.12 254.20999999999998 485.05 252.63 486.06 C 251.05 487.07 249.25 487.93 247.22 488.63 C 245.19 489.33 242.87 489.68 240.26 489.68 C 237.87 489.68 235.54999999999998 489.36 233.29999999999998 488.73 C 231.04999999999998 488.1 229.01999999999998 487.15000000000003 227.21999999999997 485.89000000000004 C 225.41999999999996 484.63000000000005 223.98999999999998 483.05000000000007 222.92999999999998 481.16 C 221.86999999999998 479.27000000000004 221.33999999999997 477.08000000000004 221.33999999999997 474.61 C 221.33999999999997 472.27000000000004 221.84999999999997 470.16 222.85999999999999 468.29 C 223.86999999999998 466.42 225.23 464.85 226.92 463.59000000000003 C 228.60999999999999 462.33000000000004 230.48 461.36 232.53 460.68 C 234.58 460 236.66 459.67 238.78 459.67 C 241.35 459.67 243.66 459.95 245.71 460.51 C 247.76000000000002 461.07 249.63 461.83 251.32000000000002 462.77 C 253.01000000000005 463.71 254.53000000000003 464.75 255.88000000000002 465.88 L 261.69 457.77 C 260.16 456.41999999999996 258.23 455.18 255.91 454.04999999999995 C 253.59 452.91999999999996 251.03 452.00999999999993 248.24 451.30999999999995 C 245.45000000000002 450.60999999999996 242.54000000000002 450.25999999999993 239.52 450.25999999999993 C 235.60000000000002 450.25999999999993 231.92000000000002 450.8499999999999 228.47 452.0199999999999 C 225.02 453.18999999999994 221.99 454.86999999999995 219.38 457.05999999999995 C 216.76999999999998 459.24999999999994 214.72 461.80999999999995 213.23 464.7699999999999 C 211.73999999999998 467.7199999999999 211 470.9799999999999 211 474.5299999999999 C 211 478.0799999999999 211.73 481.5199999999999 213.2 484.5299999999999 C 214.66 487.5499999999999 216.7 490.13999999999993 219.32 492.2999999999999 C 221.93 494.4599999999999 224.97 496.1199999999999 228.44 497.2699999999999 C 231.91 498.4199999999999 235.63 498.98999999999995 239.59 498.98999999999995 C 242.83 498.98999999999995 245.88 498.56999999999994 248.71 497.73999999999995 C 251.55 496.90999999999997 254.08 495.87999999999994 256.31 494.66999999999996 C 258.53999999999996 493.46 260.33 492.33 261.68 491.28999999999996 L 256.81 483.24999999999994 Z" stroke-linecap="round" />
</g>
		<g transform="matrix(1 0 0 1 -189.95 112.68)"  >
<polygon style="stroke: none; stroke-width: 1; stroke-dasharray: none; stroke-linecap: butt; stroke-dashoffset: 0; stroke-linejoin: miter; stroke-miterlimit: 4; fill: rgb(103,78,167); fill-rule: nonzero; opacity: 1;" vector-effect="non-scaling-stroke"  points="0.75,-2.72 -15.45,-23.65 -28.49,-23.65 -4.43,6.04 -4.43,23.66 5.78,23.66 5.78,5.45 28.49,-23.65 16.52,-23.65 0.75,-2.72 " />
</g>
		<g transform="matrix(1 0 0 1 -117.33 112.7)"  >
<path style="stroke: none; stroke-width: 1; stroke-dasharray: none; stroke-linecap: butt; stroke-dashoffset: 0; stroke-linejoin: miter; stroke-miterlimit: 4; fill: rgb(103,78,167); fill-rule: nonzero; opacity: 1;" vector-effect="non-scaling-stroke"  transform=" translate(-382.67, -474.69)" d="M 388.14 476.23 C 387.59999999999997 477.54 386.93 479.07 386.15 480.83000000000004 C 385.35999999999996 482.59000000000003 384.58 484.39000000000004 383.82 486.24000000000007 C 383.55 486.89000000000004 383.32 487.51000000000005 383.08 488.13000000000005 C 382.96 487.80000000000007 382.84 487.49000000000007 382.71 487.15000000000003 C 382.09999999999997 485.64000000000004 381.46999999999997 484.15000000000003 380.82 482.69000000000005 C 380.17 481.2300000000001 379.57 479.9200000000001 379.03 478.77000000000004 C 378.48999999999995 477.62 378.08 476.73 377.80999999999995 476.1 L 366.5899999999999 451.03000000000003 L 355.9099999999999 451.03000000000003 L 377.6699999999999 498.34000000000003 L 388.2099999999999 498.34000000000003 L 409.42999999999995 451.03000000000003 L 398.67999999999995 451.03000000000003 L 388.13999999999993 476.24 Z" stroke-linecap="round" />
</g>
		<g transform="matrix(1 0 0 1 -45.01 112.68)"  >
<polygon style="stroke: none; stroke-width: 1; stroke-dasharray: none; stroke-linecap: butt; stroke-dashoffset: 0; stroke-linejoin: miter; stroke-miterlimit: 4; fill: rgb(103,78,167); fill-rule: nonzero; opacity: 1;" vector-effect="non-scaling-stroke"  points="-11.01,3.86 17.24,3.86 17.24,-4.8 -11.01,-4.8 -11.01,-14.73 20.47,-14.73 20.47,-23.65 -20.96,-23.65 -20.96,23.66 20.95,23.66 20.95,14.74 -11.01,14.74 -11.01,3.86 " />
</g>
		<g transform="matrix(1 0 0 1 31.63 112.68)"  >
<path style="stroke: none; stroke-width: 1; stroke-dasharray: none; stroke-linecap: butt; stroke-dashoffset: 0; stroke-linejoin: miter; stroke-miterlimit: 4; fill: rgb(103,78,167); fill-rule: nonzero; opacity: 1;" vector-effect="non-scaling-stroke"  transform=" translate(-531.63, -474.67)" d="M 548.05 463.93 C 548.05 465.37 548.06 466.8 548.0799999999999 468.22 C 548.0999999999999 469.64000000000004 548.15 471.08000000000004 548.2199999999999 472.54 C 548.29 474.01000000000005 548.3699999999999 475.49 548.4599999999999 477 C 548.55 478.51 548.67 480.04 548.8299999999999 481.6 C 548.9399999999999 482.71000000000004 549.0899999999999 483.85 549.2399999999999 485 L 514.9999999999999 451.02 L 505.26999999999987 451.02 L 505.26999999999987 498.33 L 515.2099999999999 498.33 L 515.2099999999999 481.29999999999995 C 515.2099999999999 479.59 515.18 477.96 515.1099999999999 476.4 C 515.0399999999998 474.84 514.9599999999999 473.39 514.8699999999999 472.03999999999996 C 514.7799999999999 470.68999999999994 514.6699999999998 469.43999999999994 514.5299999999999 468.28999999999996 C 514.3899999999999 467.14 514.2699999999999 466.09999999999997 514.1599999999999 465.17999999999995 C 514.1399999999999 465.03 514.1299999999999 464.9 514.1099999999999 464.75999999999993 L 548.1199999999999 498.3299999999999 L 557.9899999999999 498.3299999999999 L 557.9899999999999 451.0199999999999 L 548.0499999999998 451.0199999999999 L 548.0499999999998 463.92999999999995 Z" stroke-linecap="round" />
</g>
		<g transform="matrix(1 0 0 1 114.41 112.64)"  >
<path style="stroke: none; stroke-width: 1; stroke-dasharray: none; stroke-linecap: butt; stroke-dashoffset: 0; stroke-linejoin: miter; stroke-miterlimit: 4; fill: rgb(103,78,167); fill-rule: nonzero; opacity: 1;" vector-effect="non-scaling-stroke"  transform=" translate(-614.41, -474.64)" d="M 643.08 477.85 C 643.08 477.67 643.07 477.34000000000003 643.0500000000001 476.87 C 643.0300000000001 476.4 642.9900000000001 475.83 642.95 475.18 C 642.9000000000001 474.53000000000003 642.86 473.86 642.8100000000001 473.19 L 614.83 473.19 L 614.83 481.5 L 632.6600000000001 481.5 C 632.5100000000001 482.41 632.1600000000001 483.28 631.5500000000001 484.1 C 630.6700000000001 485.3 629.4300000000001 486.32000000000005 627.83 487.17 C 626.23 488.03000000000003 624.35 488.68 622.19 489.13 C 620.0300000000001 489.58 617.71 489.81 615.23 489.81 C 612.75 489.81 610.4 489.53000000000003 608.1700000000001 488.96 C 605.94 488.4 603.9300000000001 487.52 602.1600000000001 486.32 C 600.3800000000001 485.13 598.97 483.55 597.94 481.59 C 596.9000000000001 479.63 596.3900000000001 477.28 596.3900000000001 474.53 C 596.3900000000001 472.36999999999995 596.8700000000001 470.35999999999996 597.8400000000001 468.52 C 598.8100000000002 466.66999999999996 600.1700000000002 465.07 601.9300000000002 463.71999999999997 C 603.6900000000002 462.36999999999995 605.7300000000001 461.30999999999995 608.0500000000002 460.53999999999996 C 610.3700000000002 459.77 612.8800000000002 459.39 615.5900000000001 459.39 C 617.8400000000001 459.39 619.9800000000001 459.65 622.0100000000001 460.16999999999996 C 624.0400000000001 460.68999999999994 625.9100000000001 461.37999999999994 627.6200000000001 462.22999999999996 C 629.3300000000002 463.09 630.9100000000001 464.04999999999995 632.3500000000001 465.14 L 638.6300000000001 458.11 C 637.2800000000001 456.76 635.4600000000002 455.5 633.19 454.33000000000004 C 630.9100000000001 453.16 628.3100000000001 452.19000000000005 625.3800000000001 451.42 C 622.4500000000002 450.65000000000003 619.2100000000002 450.27000000000004 615.6500000000001 450.27000000000004 C 611.3700000000001 450.27000000000004 607.4000000000001 450.88000000000005 603.7600000000001 452.09000000000003 C 600.1100000000001 453.31000000000006 596.9300000000001 455.01000000000005 594.2300000000001 457.19000000000005 C 591.5300000000001 459.38000000000005 589.4300000000002 461.94000000000005 587.9400000000002 464.90000000000003 C 586.4500000000002 467.85 585.7100000000002 471.06000000000006 585.7100000000002 474.53000000000003 C 585.7100000000002 478.63000000000005 586.4400000000002 482.20000000000005 587.9100000000002 485.24 C 589.3700000000002 488.28000000000003 591.3900000000002 490.82 593.9600000000002 492.84000000000003 C 596.5300000000002 494.87 599.5400000000002 496.40000000000003 602.9800000000001 497.44000000000005 C 606.4300000000002 498.4800000000001 610.1300000000001 499.00000000000006 614.1000000000001 499.00000000000006 C 618.4300000000002 499.00000000000006 622.3700000000001 498.56000000000006 625.9300000000002 497.68000000000006 C 629.4900000000002 496.80000000000007 632.5400000000002 495.4800000000001 635.0900000000001 493.7300000000001 C 637.6400000000001 491.9700000000001 639.6100000000001 489.7800000000001 641.0000000000001 487.1400000000001 C 642.3900000000001 484.5000000000001 643.1000000000001 481.4100000000001 643.1000000000001 477.8500000000001 Z" stroke-linecap="round" />
</g>
		<g transform="matrix(1 0 0 1 191.34 112.68)"  >
<polygon style="stroke: none; stroke-width: 1; stroke-dasharray: none; stroke-linecap: butt; stroke-dashoffset: 0; stroke-linejoin: miter; stroke-miterlimit: 4; fill: rgb(103,78,167); fill-rule: nonzero; opacity: 1;" vector-effect="non-scaling-stroke"  points="20.95,14.74 -11.01,14.74 -11.01,3.86 17.24,3.86 17.24,-4.8 -11.01,-4.8 -11.01,-14.73 20.47,-14.73 20.47,-23.65 -20.96,-23.65 -20.96,23.66 20.95,23.66 20.95,14.74 " />
</g>
		<g transform="matrix(1 0 0 1 265.31 112.72)"  >
<path style="stroke: none; stroke-width: 1; stroke-dasharray: none; stroke-linecap: butt; stroke-dashoffset: 0; stroke-linejoin: miter; stroke-miterlimit: 4; fill: rgb(103,78,167); fill-rule: nonzero; opacity: 1;" vector-effect="non-scaling-stroke"  transform=" translate(-765.31, -474.71)" d="M 775.51 480.52 C 776.2 480.26 776.88 479.96 777.54 479.60999999999996 C 780.17 478.21 782.27 476.33 783.8199999999999 473.96999999999997 C 785.3799999999999 471.59999999999997 786.15 468.92999999999995 786.15 465.96 C 786.15 462.99 785.4599999999999 460.38 784.06 458.10999999999996 C 782.66 455.85999999999996 780.68 454.10999999999996 778.15 452.87999999999994 C 775.6 451.62999999999994 772.59 451.0199999999999 769.12 451.0199999999999 L 741.62 451.0199999999999 L 741.62 498.3299999999999 L 751.42 498.3299999999999 L 751.42 481.7099999999999 L 764.4499999999999 481.7099999999999 L 776.9599999999999 498.3299999999999 L 788.9999999999999 498.3999999999999 L 775.5099999999999 480.5199999999999 Z M 771.66 472.55 C 770.41 473.16 769.06 473.46000000000004 767.5699999999999 473.46000000000004 L 751.43 473.46000000000004 L 751.43 459.81000000000006 L 767.51 459.81000000000006 C 769 459.81000000000006 770.37 460.08000000000004 771.63 460.62000000000006 C 772.89 461.1600000000001 773.89 461.9200000000001 774.64 462.9100000000001 C 775.39 463.9100000000001 775.77 465.05000000000007 775.77 466.37000000000006 C 775.77 467.69000000000005 775.39 468.93000000000006 774.64 470.02000000000004 C 773.89 471.11 772.91 471.94000000000005 771.67 472.55 Z" stroke-linecap="round" />
</g>
		<g transform="matrix(1 0 0 1 -0.36 -72.75)"  >
<path style="stroke: none; stroke-width: 1; stroke-dasharray: none; stroke-linecap: butt; stroke-dashoffset: 0; stroke-linejoin: miter; stroke-miterlimit: 4; fill: rgb(103,78,167); fill-rule: nonzero; opacity: 1;" vector-effect="non-scaling-stroke"  transform=" translate(-499.64, -289.25)" d="M 554.98 286.71 L 547.19 289.09999999999997 L 534.25 293.05999999999995 L 525.57 295.72999999999996 L 534.85 291.59999999999997 L 548.1700000000001 285.65999999999997 L 556.0000000000001 282.15999999999997 L 567.6700000000001 276.96 L 599.7900000000001 262.65 L 634.8800000000001 181.39 L 566.7300000000001 238.04999999999998 L 557.2100000000002 245.93999999999997 L 550.9600000000002 251.13999999999996 L 540.7900000000002 259.58 L 494.4700000000002 298.09 L 509.75000000000017 323.52 L 511.82000000000016 326.99 C 507.2900000000002 324.66 502.77000000000015 322.33 498.2400000000002 319.98 C 496.25000000000017 318.85 490.58000000000015 315.99 485.8000000000002 318.14000000000004 C 485.4300000000002 318.30000000000007 481.7900000000002 319.96000000000004 481.9600000000002 321.79 C 482.0000000000002 322.28000000000003 482.3500000000002 322.77000000000004 483.1100000000002 323.25 C 483.1100000000002 323.25 480.2200000000002 323.4 479.4000000000002 321.53 C 478.56000000000023 319.66999999999996 479.9800000000002 316.65 479.9800000000002 316.65 C 479.9800000000002 316.65 478.9000000000002 314.82 481.3600000000002 311.48999999999995 C 483.3700000000002 308.73999999999995 486.4800000000002 305.65 487.5300000000002 304.61999999999995 C 487.0800000000002 303.59 486.7000000000002 302.6499999999999 486.4000000000002 301.86999999999995 L 480.7600000000002 294.31999999999994 L 416.24000000000024 262.35999999999996 L 406.99000000000024 257.78 C 419.60000000000025 235.31999999999996 443.36000000000024 221.36999999999998 469.03000000000026 221.36999999999998 C 484.27000000000027 221.36999999999998 498.8100000000003 226.14999999999998 511.08000000000027 235.17999999999998 C 512.7200000000003 236.39999999999998 514.1700000000003 237.55999999999997 515.5200000000003 238.73 C 518.1700000000003 241.01 520.6900000000003 243.54 523.0300000000003 246.25 L 523.4400000000003 246.73 L 550.2400000000002 226.51 L 549.7900000000002 225.95999999999998 C 547.4100000000002 223.09999999999997 544.9700000000001 220.42999999999998 542.5300000000002 218.04 C 541.2600000000002 216.78 539.9100000000002 215.51 538.4000000000002 214.16 C 519.2500000000002 197.16 494.62000000000023 187.8 469.0400000000002 187.8 C 411.3400000000002 187.8 364.4000000000002 234.74 364.4000000000002 292.44 C 364.4000000000002 350.14 411.3400000000002 397.1 469.0400000000002 397.1 C 498.5900000000002 397.1 526.9200000000002 384.47 546.7500000000002 362.45000000000005 C 550.4300000000002 357.93000000000006 554.1100000000002 353.40000000000003 557.8000000000002 348.88000000000005 C 557.4700000000001 348.62000000000006 557.1600000000002 348.3500000000001 556.8400000000001 348.09000000000003 C 553.6700000000002 345.50000000000006 550.4800000000001 342.90000000000003 547.3100000000002 340.31000000000006 C 545.2800000000002 338.6600000000001 543.2400000000001 336.99000000000007 541.2100000000002 335.34000000000003 C 538.7800000000002 333.35 536.3400000000001 331.37 533.9200000000002 329.39000000000004 C 527.9800000000001 324.54 522.0600000000002 319.70000000000005 516.1200000000002 314.86000000000007 C 528.5400000000002 316.01000000000005 540.9500000000003 317.18000000000006 553.3700000000002 318.3300000000001 L 556.8900000000002 312.8000000000001 L 577.9800000000002 279.67000000000013 L 566.6500000000002 283.14000000000016 L 554.9500000000002 286.73000000000013 Z M 534.28 356.09 C 534.15 356.16999999999996 534.01 356.23999999999995 533.87 356.32 C 516.96 370.3 502.1 377.78 493.83 380.11 C 488.53 381.6 482.99 382.46000000000004 482.93 382.46000000000004 C 478.37 383.17 473.7 383.52000000000004 469.06 383.52000000000004 C 418.83 383.52000000000004 377.97 342.65000000000003 377.97 292.4200000000001 C 377.97 290.99000000000007 378 289.70000000000005 378.06 288.4600000000001 C 378.09 287.6300000000001 378.13 286.8100000000001 378.2 285.99000000000007 C 381.53 238.52000000000007 421.44 201.33000000000007 469.06 201.33000000000007 C 490.43 201.33000000000007 511.21 208.91000000000008 527.58 222.67000000000007 C 528.8100000000001 223.69000000000008 530.0200000000001 224.76000000000008 531.1800000000001 225.86000000000007 L 525.95 229.81000000000006 C 524.62 228.60000000000005 523.33 227.51000000000005 522.0400000000001 226.46000000000006 C 504.56000000000006 212.33000000000007 483.1600000000001 207.94000000000005 469.06000000000006 207.78000000000006 C 440.89000000000004 207.46000000000006 412.2300000000001 224.07000000000005 394.83000000000004 251.56000000000006 C 393.55000000000007 250.98000000000005 392.27000000000004 250.41000000000005 390.99000000000007 249.83000000000007 C 405.7200000000001 265.58000000000004 420.46000000000004 281.3400000000001 435.19000000000005 297.11000000000007 L 469.08000000000004 307.99000000000007 L 447.30000000000007 310.33000000000004 C 455.64000000000004 319.06000000000006 463.9600000000001 327.80000000000007 472.2900000000001 336.54 C 480.6500000000001 333.53000000000003 489.0200000000001 330.54 497.38000000000005 327.54 C 494.97 334.55 492.5400000000001 341.57 490.13000000000005 348.58000000000004 C 496.03000000000003 348.12000000000006 501.91 347.66 507.81000000000006 347.20000000000005 C 507.69000000000005 342.02000000000004 507.55000000000007 336.84000000000003 507.4200000000001 331.6700000000001 C 509.8500000000001 337.07000000000005 512.2600000000001 342.4800000000001 514.6800000000001 347.88000000000005 L 514.59 347.94000000000005 C 512.49 349.30000000000007 509.08000000000004 351.44000000000005 504.73 353.90000000000003 L 504.6 353.98 C 504.05 354.29 502.59000000000003 355.12 501.48 355.69 C 495.32 358.86 488.75 361.09 481.97 362.33 C 477.76000000000005 363.10999999999996 473.43 363.51 469.08000000000004 363.51 C 436.27000000000004 363.51 407.88000000000005 341.25 400.05000000000007 309.39 C 398.8400000000001 304.46999999999997 398.1500000000001 299.39 398.0200000000001 294.3 C 398.0100000000001 293.68 397.9900000000001 293.05 397.9900000000001 292.42 C 397.9900000000001 284.05 399.4400000000001 275.86 402.29000000000013 268.08000000000004 L 402.4300000000001 267.71000000000004 L 392.67000000000013 256.05 L 392.22000000000014 257.02000000000004 C 387.52000000000015 267.15000000000003 384.9300000000001 277.96000000000004 384.51000000000016 289.16 C 384.47000000000014 290.24 384.44000000000017 291.33000000000004 384.44000000000017 292.43 C 384.44000000000017 293.61 384.47000000000014 294.8 384.52000000000015 295.96 C 386.38000000000017 341.45 423.52000000000015 377.08 469.07000000000016 377.08 C 473.1800000000002 377.08 477.6200000000002 376.65 477.66000000000014 376.64 C 477.7400000000001 376.64 485.73000000000013 375.88 492.38000000000017 374.25 C 499.53000000000014 372.49 512.3500000000001 366.24 526.8700000000001 353.97 L 527.7100000000002 353.26000000000005 C 528.0800000000002 352.97 528.4600000000002 352.69000000000005 528.8300000000002 352.40000000000003 C 524.6500000000002 344.81000000000006 520.4600000000002 337.21000000000004 516.2800000000002 329.62 C 522.2800000000002 338.44 528.2800000000002 347.26 534.2800000000002 356.08 Z" stroke-linecap="round" />
</g>
		<g transform="matrix(1 0 0 1 -16.47 -47.65)"  >
<path style="stroke: none; stroke-width: 1; stroke-dasharray: none; stroke-linecap: butt; stroke-dashoffset: 0; stroke-linejoin: miter; stroke-miterlimit: 4; fill: rgb(103,78,167); fill-rule: nonzero; opacity: 1;" vector-effect="non-scaling-stroke"  transform=" translate(-483.53, -314.34)" d="M 484.74 313.12 C 484.74 313.03000000000003 484.66 312.95 484.57 312.95 C 484.51 312.95 484.46 312.99 484.43 313.03999999999996 C 484.31 312.96999999999997 484.18 312.91999999999996 484.05 312.91999999999996 C 483.73 312.91999999999996 483.51 313.14 483.46000000000004 313.18999999999994 C 483.22 313.53999999999996 482.95000000000005 313.97999999999996 482.71000000000004 314.48999999999995 C 482.49 314.96 482.34000000000003 315.38999999999993 482.23 315.7699999999999 C 482.45000000000005 315.25999999999993 482.70000000000005 314.88999999999993 482.90000000000003 314.62999999999994 C 483.27000000000004 314.13999999999993 483.46000000000004 314.09999999999997 483.54 314.0899999999999 C 483.85 314.0399999999999 483.99 314.2799999999999 484.31 314.19999999999993 C 484.55 314.1499999999999 484.79 313.93999999999994 484.83 313.68999999999994 C 484.84999999999997 313.53999999999996 484.78 313.37999999999994 484.68 313.24999999999994 C 484.72 313.21999999999997 484.75 313.17999999999995 484.75 313.11999999999995 Z" stroke-linecap="round" />
</g>
</g>
</g>
<g transform="matrix(NaN NaN NaN NaN 0 0)"  >
<g style=""   >
</g>
</g>
</svg>