<?xml version="1.0" encoding="UTF-8" standalone="no" ?>
<!DOCTYPE svg PUBLIC "-//W3C//DTD SVG 1.1//EN" "http://www.w3.org/Graphics/SVG/1.1/DTD/svg11.dtd">
<svg xmlns="http://www.w3.org/2000/svg" xmlns:xlink="http://www.w3.org/1999/xlink" version="1.1" width="106" height="52" viewBox="0 0 106 52" xml:space="preserve">
<desc>Created with Fabric.js 5.2.4</desc>
<defs>
</defs>
<rect x="0" y="0" width="100%" height="100%" fill="transparent"></rect>
<g transform="matrix(1 0 0 1 540 540)" id="2612077b-e651-484b-905b-c6607a582eb0"  >
<rect style="stroke: none; stroke-width: 1; stroke-dasharray: none; stroke-linecap: butt; stroke-dashoffset: 0; stroke-linejoin: miter; stroke-miterlimit: 4; fill: rgb(255,255,255); fill-rule: nonzero; opacity: 1; visibility: hidden;" vector-effect="non-scaling-stroke"  x="-540" y="-540" rx="0" ry="0" width="1080" height="1080" />
</g>
<g transform="matrix(1 0 0 1 540 540)" id="600d92c8-adb0-40d1-8bdb-ea5f69701905"  >
</g>
<g transform="matrix(1.48 0 0 1.48 213.73 171.86)"  >
<g style="" vector-effect="non-scaling-stroke"   >
		<g transform="matrix(1 0 0 1 0 0)"  >
<path style="stroke: none; stroke-width: 1; stroke-dasharray: none; stroke-linecap: butt; stroke-dashoffset: 0; stroke-linejoin: miter; stroke-miterlimit: 4; fill: rgb(0,0,0); fill-rule: nonzero; opacity: 1;" vector-effect="non-scaling-stroke"  transform=" translate(-288.97, -253.32)" d="M 344.31 250.79 L 336.52 253.17999999999998 L 323.58 257.14 L 314.9 259.81 L 324.17999999999995 255.68 L 337.49999999999994 249.74 L 345.3299999999999 246.24 L 356.99999999999994 241.04000000000002 L 389.11999999999995 226.73000000000002 L 424.2099999999999 145.47000000000003 L 356.05999999999995 202.13000000000002 L 346.53999999999996 210.02 L 340.28999999999996 215.22 L 330.11999999999995 223.66 L 283.79999999999995 262.17 L 299.0799999999999 287.6 L 301.1499999999999 291.07000000000005 C 296.61999999999995 288.74000000000007 292.0999999999999 286.41 287.56999999999994 284.06000000000006 C 285.5799999999999 282.93000000000006 279.9099999999999 280.07000000000005 275.12999999999994 282.2200000000001 C 274.75999999999993 282.3800000000001 271.11999999999995 284.0400000000001 271.28999999999996 285.87000000000006 C 271.33 286.36000000000007 271.67999999999995 286.8500000000001 272.43999999999994 287.33000000000004 C 272.43999999999994 287.33000000000004 269.54999999999995 287.48 268.72999999999996 285.61 C 267.89 283.75 269.30999999999995 280.73 269.30999999999995 280.73 C 269.30999999999995 280.73 268.22999999999996 278.90000000000003 270.68999999999994 275.57 C 272.69999999999993 272.82 275.80999999999995 269.73 276.85999999999996 268.7 C 276.40999999999997 267.67 276.03 266.72999999999996 275.72999999999996 265.95 L 270.09 258.4 L 205.57 226.43999999999997 L 196.32 221.85999999999996 C 208.93 199.39999999999995 232.69 185.44999999999996 258.36 185.44999999999996 C 273.6 185.44999999999996 288.14 190.22999999999996 300.41 199.25999999999996 C 302.05 200.47999999999996 303.5 201.63999999999996 304.85 202.80999999999997 C 307.5 205.08999999999997 310.02000000000004 207.61999999999998 312.36 210.32999999999998 L 312.77000000000004 210.80999999999997 L 339.57000000000005 190.58999999999997 L 339.12000000000006 190.03999999999996 C 336.74000000000007 187.17999999999995 334.30000000000007 184.50999999999996 331.86000000000007 182.11999999999998 C 330.5900000000001 180.85999999999999 329.24000000000007 179.58999999999997 327.7300000000001 178.23999999999998 C 308.5800000000001 161.23999999999998 283.95000000000005 151.88 258.37000000000006 151.88 C 200.67000000000007 151.88 153.73000000000008 198.82 153.73000000000008 256.52 C 153.73000000000008 314.21999999999997 200.67000000000007 361.17999999999995 258.37000000000006 361.17999999999995 C 287.9200000000001 361.17999999999995 316.25000000000006 348.54999999999995 336.08000000000004 326.53 C 339.76000000000005 322.01 343.44000000000005 317.47999999999996 347.13000000000005 312.96 C 346.80000000000007 312.7 346.49000000000007 312.43 346.1700000000001 312.16999999999996 C 343.00000000000006 309.58 339.81000000000006 306.97999999999996 336.6400000000001 304.39 C 334.6100000000001 302.74 332.5700000000001 301.07 330.5400000000001 299.41999999999996 C 328.11000000000007 297.42999999999995 325.6700000000001 295.44999999999993 323.25000000000006 293.46999999999997 C 317.31000000000006 288.61999999999995 311.39000000000004 283.78 305.45000000000005 278.94 C 317.87000000000006 280.09 330.28000000000003 281.26 342.70000000000005 282.41 L 346.22 276.88000000000005 L 367.31 243.75000000000006 L 355.98 247.22000000000006 L 344.28000000000003 250.81000000000006 Z M 323.62 320.17 C 323.49 320.25 323.35 320.32 323.21 320.40000000000003 C 306.29999999999995 334.38000000000005 291.44 341.86 283.16999999999996 344.19000000000005 C 277.86999999999995 345.68000000000006 272.33 346.5400000000001 272.27 346.5400000000001 C 267.71 347.25000000000006 263.03999999999996 347.6000000000001 258.4 347.6000000000001 C 208.17 347.6000000000001 167.30999999999997 306.7300000000001 167.30999999999997 256.5000000000001 C 167.30999999999997 255.0700000000001 167.33999999999997 253.78000000000011 167.39999999999998 252.5400000000001 C 167.42999999999998 251.7100000000001 167.46999999999997 250.8900000000001 167.53999999999996 250.0700000000001 C 170.86999999999998 202.6000000000001 210.77999999999997 165.4100000000001 258.4 165.4100000000001 C 279.77 165.4100000000001 300.54999999999995 172.99000000000012 316.91999999999996 186.7500000000001 C 318.15 187.77000000000012 319.35999999999996 188.84000000000012 320.52 189.9400000000001 L 315.28999999999996 193.8900000000001 C 313.96 192.6800000000001 312.66999999999996 191.5900000000001 311.37999999999994 190.5400000000001 C 293.8999999999999 176.4100000000001 272.49999999999994 172.0200000000001 258.3999999999999 171.8600000000001 C 230.2299999999999 171.5400000000001 201.56999999999994 188.1500000000001 184.1699999999999 215.6400000000001 C 182.8899999999999 215.0600000000001 181.6099999999999 214.4900000000001 180.3299999999999 213.9100000000001 C 195.0599999999999 229.6600000000001 209.7999999999999 245.4200000000001 224.52999999999992 261.1900000000001 L 258.4199999999999 272.0700000000001 L 236.6399999999999 274.4100000000001 C 244.9799999999999 283.1400000000001 253.2999999999999 291.8800000000001 261.6299999999999 300.62000000000006 C 269.9899999999999 297.61000000000007 278.3599999999999 294.62000000000006 286.71999999999986 291.62000000000006 C 284.30999999999983 298.63000000000005 281.8799999999999 305.65000000000003 279.46999999999986 312.6600000000001 C 285.36999999999983 312.2000000000001 291.24999999999983 311.74000000000007 297.14999999999986 311.2800000000001 C 297.02999999999986 306.1000000000001 296.8899999999999 300.9200000000001 296.7599999999999 295.7500000000001 C 299.1899999999999 301.1500000000001 301.59999999999985 306.5600000000001 304.01999999999987 311.9600000000001 L 303.9299999999999 312.0200000000001 C 301.82999999999987 313.3800000000001 298.4199999999999 315.5200000000001 294.0699999999999 317.9800000000001 L 293.9399999999999 318.06000000000006 C 293.3899999999999 318.37000000000006 291.9299999999999 319.20000000000005 290.8199999999999 319.77000000000004 C 284.65999999999985 322.94000000000005 278.08999999999986 325.17 271.3099999999999 326.41 C 267.0999999999999 327.19 262.76999999999987 327.59000000000003 258.4199999999999 327.59000000000003 C 225.6099999999999 327.59000000000003 197.2199999999999 305.33000000000004 189.3899999999999 273.47 C 188.1799999999999 268.55 187.4899999999999 263.47 187.3599999999999 258.38000000000005 C 187.3499999999999 257.76000000000005 187.3299999999999 257.13000000000005 187.3299999999999 256.50000000000006 C 187.3299999999999 248.13000000000005 188.7799999999999 239.94000000000005 191.6299999999999 232.16000000000005 L 191.7699999999999 231.79000000000005 L 182.0099999999999 220.13000000000005 L 181.55999999999992 221.10000000000005 C 176.85999999999993 231.23000000000005 174.26999999999992 242.04000000000005 173.8499999999999 253.24000000000007 C 173.80999999999992 254.32000000000008 173.77999999999992 255.41000000000005 173.77999999999992 256.51000000000005 C 173.77999999999992 257.69000000000005 173.80999999999992 258.88000000000005 173.85999999999993 260.04 C 175.71999999999994 305.53000000000003 212.85999999999993 341.16 258.4099999999999 341.16 C 262.5199999999999 341.16 266.9599999999999 340.73 266.9999999999999 340.72 C 267.07999999999987 340.72 275.0699999999999 339.96000000000004 281.7199999999999 338.33000000000004 C 288.8699999999999 336.57000000000005 301.68999999999994 330.32000000000005 316.2099999999999 318.05000000000007 L 317.0499999999999 317.3400000000001 C 317.4199999999999 317.05000000000007 317.7999999999999 316.7700000000001 318.1699999999999 316.4800000000001 C 313.9899999999999 308.8900000000001 309.7999999999999 301.2900000000001 305.6199999999999 293.70000000000005 C 311.6199999999999 302.52000000000004 317.6199999999999 311.34000000000003 323.6199999999999 320.16 Z" stroke-linecap="round" />
</g>
		<g transform="matrix(1 0 0 1 -16.1 25.09)"  >
<path style="stroke: none; stroke-width: 1; stroke-dasharray: none; stroke-linecap: butt; stroke-dashoffset: 0; stroke-linejoin: miter; stroke-miterlimit: 4; fill: rgb(0,0,0); fill-rule: nonzero; opacity: 1;" vector-effect="non-scaling-stroke"  transform=" translate(-272.87, -278.41)" d="M 274.08 277.19 C 274.08 277.1 274 277.02 273.90999999999997 277.02 C 273.84999999999997 277.02 273.79999999999995 277.06 273.77 277.10999999999996 C 273.65 277.03999999999996 273.52 276.98999999999995 273.39 276.98999999999995 C 273.07 276.98999999999995 272.84999999999997 277.21 272.8 277.25999999999993 C 272.56 277.60999999999996 272.29 278.04999999999995 272.05 278.55999999999995 C 271.83 279.03 271.68 279.4599999999999 271.57 279.8399999999999 C 271.79 279.3299999999999 272.04 278.9599999999999 272.24 278.69999999999993 C 272.61 278.2099999999999 272.8 278.16999999999996 272.88 278.1599999999999 C 273.19 278.1099999999999 273.33 278.3499999999999 273.65 278.2699999999999 C 273.89 278.2199999999999 274.13 278.00999999999993 274.16999999999996 277.75999999999993 C 274.18999999999994 277.60999999999996 274.11999999999995 277.44999999999993 274.02 277.31999999999994 C 274.06 277.28999999999996 274.09 277.24999999999994 274.09 277.18999999999994 Z" stroke-linecap="round" />
</g>
</g>
</g>
</svg>