<?xml version="1.0" encoding="UTF-8"?>
<!-- <svg width="106" height="52" xmlns="http://www.w3.org/2000/svg" version="1.1"> -->
<svg width="506" height="252" xmlns="http://www.w3.org/2000/svg" version="1.1" viewBox="0 0 506 350">
  <!-- Generator: Adobe Illustrator 28.7.1, SVG Export Plug-In . SVG Version: 1.2.0 Build 142)  -->
  <g>
    <g id="Layer_1">
      <g>
        <path d="M344.31,250.79l-7.79,2.39-12.94,3.96-8.68,2.67,9.28-4.13,13.32-5.94,7.83-3.5,11.67-5.2,32.12-14.31,35.09-81.26-68.15,56.66-9.52,7.89-6.25,5.2-10.17,8.44-46.32,38.51,15.28,25.43,2.07,3.47c-4.53-2.33-9.05-4.66-13.58-7.01-1.99-1.13-7.66-3.99-12.44-1.84-.37.16-4.01,1.82-3.84,3.65.04.49.39.98,1.15,1.46,0,0-2.89.15-3.71-1.72-.84-1.86.58-4.88.58-4.88,0,0-1.08-1.83,1.38-5.16,2.01-2.75,5.12-5.84,6.17-6.87-.45-1.03-.83-1.97-1.13-2.75l-5.64-7.55-64.52-31.96-9.25-4.58c12.61-22.46,36.37-36.41,62.04-36.41,15.24,0,29.78,4.78,42.05,13.81,1.64,1.22,3.09,2.38,4.44,3.55,2.65,2.28,5.17,4.81,7.51,7.52l.41.48,26.8-20.22-.45-.55c-2.38-2.86-4.82-5.53-7.26-7.92-1.27-1.26-2.62-2.53-4.13-3.88-19.15-17-43.78-26.36-69.36-26.36-57.7,0-104.64,46.94-104.64,104.64s46.94,104.66,104.64,104.66c29.55,0,57.88-12.63,77.71-34.65,3.68-4.52,7.36-9.05,11.05-13.57-.33-.26-.64-.53-.96-.79-3.17-2.59-6.36-5.19-9.53-7.78-2.03-1.65-4.07-3.32-6.1-4.97-2.43-1.99-4.87-3.97-7.29-5.95-5.94-4.85-11.86-9.69-17.8-14.53,12.42,1.15,24.83,2.32,37.25,3.47l3.52-5.53,21.09-33.13-11.33,3.47-11.7,3.59ZM323.62,320.17c-.13.08-.27.15-.41.23-16.91,13.98-31.77,21.46-40.04,23.79-5.3,1.49-10.84,2.35-10.9,2.35-4.56.71-9.23,1.06-13.87,1.06-50.23,0-91.09-40.87-91.09-91.1,0-1.43.03-2.72.09-3.96.03-.83.07-1.65.14-2.47,3.33-47.47,43.24-84.66,90.86-84.66,21.37,0,42.15,7.58,58.52,21.34,1.23,1.02,2.44,2.09,3.6,3.19l-5.23,3.95c-1.33-1.21-2.62-2.3-3.91-3.35-17.48-14.13-38.88-18.52-52.98-18.68-28.17-.32-56.83,16.29-74.23,43.78-1.28-.58-2.56-1.15-3.84-1.73,14.73,15.75,29.47,31.51,44.2,47.28l33.89,10.88-21.78,2.34c8.34,8.73,16.66,17.47,24.99,26.21,8.36-3.01,16.73-6,25.09-9-2.41,7.01-4.84,14.03-7.25,21.04,5.9-.46,11.78-.92,17.68-1.38-.12-5.18-.26-10.36-.39-15.53,2.43,5.4,4.84,10.81,7.26,16.21l-.09.06c-2.1,1.36-5.51,3.5-9.86,5.96l-.13.08c-.55.31-2.01,1.14-3.12,1.71-6.16,3.17-12.73,5.4-19.51,6.64-4.21.78-8.54,1.18-12.89,1.18-32.81,0-61.2-22.26-69.03-54.12-1.21-4.92-1.9-10-2.03-15.09-.01-.62-.03-1.25-.03-1.88,0-8.37,1.45-16.56,4.3-24.34l.14-.37-9.76-11.66-.45.97c-4.7,10.13-7.29,20.94-7.71,32.14-.04,1.08-.07,2.17-.07,3.27,0,1.18.03,2.37.08,3.53,1.86,45.49,39,81.12,84.55,81.12,4.11,0,8.55-.43,8.59-.44.08,0,8.07-.76,14.72-2.39,7.15-1.76,19.97-8.01,34.49-20.28l.84-.71c.37-.29.75-.57,1.12-.86-4.18-7.59-8.37-15.19-12.55-22.78,6,8.82,12,17.64,18,26.46Z"/>
        <path d="M274.08,277.19c0-.09-.08-.17-.17-.17-.06,0-.11.04-.14.09-.12-.07-.25-.12-.38-.12-.32,0-.54.22-.59.27-.24.35-.51.79-.75,1.3-.22.47-.37.9-.48,1.28.22-.51.47-.88.67-1.14.37-.49.56-.53.64-.54.31-.05.45.19.77.11.24-.05.48-.26.52-.51.02-.15-.05-.31-.15-.44.04-.03.07-.07.07-.13Z"/>
      </g>
    </g>
  </g>
</svg>