<?xml version="1.0" encoding="UTF-8"?>
<svg width="106" height="52" xmlns="http://www.w3.org/2000/svg" version="1.1" viewBox="0 0 1000 723.97">
<!-- <svg width="106" height="52" viewBox="0 0 106 52" fill="none" xmlns="http://www.w3.org/2000/svg"> -->
  <!-- Generator: Adobe Illustrator 28.7.1, SVG Export Plug-In . SVG Version: 1.2.0 Build 142)  -->
  <g>
    <g id="Layer_1">
      <g>
        <path d="M245.94,527.85c-.85-.8-1.88-1.42-3.12-1.87-1.22-.46-2.63-.69-4.23-.69h-8.93v17.07h8.93c1.6,0,3.01-.23,4.23-.68,1.23-.45,2.26-1.06,3.12-1.84.84-.79,1.48-1.69,1.91-2.74.43-1.03.64-2.11.64-3.27s-.2-2.22-.64-3.24c-.43-1.03-1.07-1.94-1.91-2.74ZM244.32,535.78c-.23.64-.61,1.19-1.11,1.68-.5.5-1.14.89-1.92,1.18-.77.28-1.71.42-2.79.42h-5.18v-10.48h5.18c1.08,0,2.02.15,2.79.43.79.3,1.42.69,1.92,1.19.5.49.88,1.04,1.11,1.67.23.61.35,1.26.35,1.95s-.12,1.33-.35,1.95Z"/>
        <polygon points="263.78 535.21 273.96 535.21 273.96 532.09 263.78 532.09 263.78 528.51 275.13 528.51 275.13 525.29 260.19 525.29 260.19 542.35 275.3 542.35 275.3 539.13 263.78 539.13 263.78 535.21"/>
        <polygon points="285.71 528.58 292.38 528.58 292.38 542.35 296.04 542.35 296.04 528.58 302.86 528.58 302.86 525.29 285.71 525.29 285.71 528.58"/>
        <polygon points="317.48 535.21 327.67 535.21 327.67 532.09 317.48 532.09 317.48 528.51 328.84 528.51 328.84 525.29 313.9 525.29 313.9 542.35 329.01 542.35 329.01 539.13 317.48 539.13 317.48 535.21"/>
        <path d="M345.81,529.82c.61-.45,1.28-.81,2.02-1.05.74-.24,1.49-.37,2.25-.37.93,0,1.76.1,2.5.31.74.2,1.41.47,2.02.82.61.34,1.16.71,1.64,1.12l2.1-2.93c-.55-.49-1.25-.93-2.08-1.34-.84-.4-1.76-.73-2.77-.99-1.01-.25-2.05-.38-3.14-.38-1.41,0-2.74.21-3.98.63-1.24.42-2.34,1.03-3.28,1.81-.94.79-1.68,1.72-2.22,2.78-.54,1.06-.8,2.24-.8,3.52s.26,2.52.79,3.61c.53,1.09,1.26,2.02,2.21,2.8.94.78,2.04,1.38,3.29,1.79,1.25.41,2.59.62,4.02.62,1.17,0,2.27-.15,3.29-.45,1.02-.3,1.94-.67,2.74-1.11.8-.44,1.45-.84,1.94-1.22l-1.75-2.9c-.44.31-.94.64-1.51,1.01-.57.36-1.22.67-1.95.93-.73.25-1.57.38-2.51.38-.86,0-1.7-.11-2.51-.34-.81-.23-1.54-.57-2.19-1.02s-1.17-1.02-1.55-1.71c-.38-.68-.57-1.47-.57-2.36,0-.84.18-1.6.55-2.28.37-.67.85-1.24,1.46-1.69Z"/>
        <polygon points="367.95 528.58 374.63 528.58 374.63 542.35 378.28 542.35 378.28 528.58 385.1 528.58 385.1 525.29 367.95 525.29 367.95 528.58"/>
        <polygon points="396.53 528.61 401.09 528.61 401.09 539.04 396.53 539.04 396.53 542.35 409.3 542.35 409.3 539.04 404.74 539.04 404.74 528.61 409.3 528.61 409.3 525.29 396.53 525.29 396.53 528.61"/>
        <path d="M438.03,529.95c0,.52,0,1.04.01,1.55,0,.51.02,1.03.05,1.56.03.53.05,1.06.09,1.61.03.55.08,1.1.13,1.66.04.4.09.81.15,1.22l-12.34-12.25h-3.51v17.06h3.58v-6.14c0-.62-.01-1.21-.04-1.76-.02-.56-.05-1.08-.09-1.57-.03-.49-.07-.94-.12-1.35-.05-.41-.09-.79-.13-1.12,0-.06-.01-.1-.02-.15l12.26,12.1h3.56v-17.06h-3.58v4.65Z"/>
        <path d="M473.95,534c-.02-.23-.03-.47-.05-.72h-10.09v3h6.41c-.05.33-.16.64-.37.94-.32.43-.76.8-1.34,1.11-.58.31-1.26.55-2.03.71-.78.16-1.62.24-2.51.24s-1.74-.1-2.55-.31c-.81-.2-1.53-.52-2.17-.95-.64-.43-1.15-1-1.52-1.71-.37-.71-.56-1.56-.56-2.55,0-.78.17-1.5.52-2.17.35-.67.84-1.24,1.47-1.73.63-.49,1.37-.87,2.21-1.15.84-.28,1.74-.41,2.72-.41.81,0,1.58.09,2.32.28.73.19,1.4.44,2.02.74.62.31,1.18.66,1.71,1.05l2.27-2.53c-.49-.49-1.14-.94-1.96-1.36-.82-.42-1.76-.77-2.81-1.05-1.06-.28-2.22-.41-3.51-.41-1.54,0-2.97.22-4.29.66-1.32.44-2.46,1.05-3.44,1.84-.97.79-1.73,1.71-2.26,2.78-.54,1.06-.81,2.22-.81,3.47,0,1.48.26,2.76.79,3.86.53,1.1,1.26,2.01,2.18,2.74.93.73,2.01,1.28,3.25,1.66,1.24.37,2.58.56,4.01.56,1.56,0,2.98-.16,4.26-.48,1.28-.32,2.38-.79,3.3-1.43.92-.63,1.63-1.42,2.13-2.38.5-.95.76-2.07.76-3.35,0-.07,0-.18-.01-.35,0-.17-.02-.37-.04-.61Z"/>
        <path d="M517.51,533.62c-.46-.24-.95-.43-1.45-.6.76-.27,1.41-.62,1.83-1.11.58-.66.87-1.46.87-2.41,0-.87-.26-1.63-.76-2.26-.52-.64-1.27-1.11-2.28-1.45-.99-.33-2.24-.5-3.71-.5h-9.6v17.07h10.23c.8,0,1.6-.08,2.43-.23.81-.16,1.59-.42,2.28-.8.7-.37,1.26-.89,1.68-1.56.42-.66.64-1.5.64-2.53,0-.85-.2-1.59-.6-2.18-.41-.58-.92-1.06-1.56-1.42ZM505.92,528.46h6.07c.88,0,1.63.14,2.22.39s.89.72.89,1.37c0,.38-.14.72-.38.99-.26.28-.61.49-1.04.64-.46.15-.95.22-1.48.22h-6.29v-3.61ZM515.6,538.27c-.27.31-.66.54-1.17.69-.49.15-1.06.22-1.69.22h-6.82v-4.19h6.7c.49,0,1,.05,1.53.18.53.12.98.34,1.33.64.37.3.56.73.56,1.29,0,.46-.15.85-.43,1.18Z"/>
        <path d="M544.31,535.6c.95-.5,1.71-1.18,2.26-2.03.57-.85.84-1.82.84-2.89s-.24-2.02-.75-2.83c-.52-.81-1.22-1.44-2.14-1.88-.91-.45-1.99-.68-3.25-.68h-9.91v17.07h3.52v-5.99h4.7l4.51,5.99,4.34.03-4.89-6.49c.26-.09.52-.16.76-.28ZM542.19,533.05c-.45.22-.94.33-1.48.33h-5.83v-4.92h5.8c.54,0,1.03.09,1.49.3.46.19.81.46,1.08.83.27.35.41.77.41,1.25s-.14.92-.41,1.31c-.27.38-.62.69-1.07.91Z"/>
        <polygon points="560.89 528.61 565.45 528.61 565.45 539.04 560.89 539.04 560.89 542.35 573.66 542.35 573.66 539.04 569.11 539.04 569.11 528.61 573.66 528.61 573.66 525.29 560.89 525.29 560.89 528.61"/>
        <polygon points="590.62 525.29 586.97 525.29 586.97 542.35 601.76 542.35 601.76 539.06 590.62 539.06 590.62 525.29"/>
        <polygon points="617.06 525.29 613.4 525.29 613.4 542.35 628.2 542.35 628.2 539.06 617.06 539.06 617.06 525.29"/>
        <polygon points="640.24 528.61 644.79 528.61 644.79 539.04 640.24 539.04 640.24 542.35 653 542.35 653 539.04 648.45 539.04 648.45 528.61 653 528.61 653 525.29 640.24 525.29 640.24 528.61"/>
        <path d="M672.28,525.29l-8.43,17.07h3.73l1.65-3.33h9.58l1.65,3.33h3.85l-8.38-17.07h-3.66ZM670.68,536.09l2.14-4.31c.16-.35.31-.68.46-.98.15-.31.28-.62.43-.94.12-.23.22-.49.31-.73.09.23.18.45.27.68.14.3.27.61.43.91.15.31.31.64.47.98l2.17,4.39h-6.7Z"/>
        <path d="M710.2,529.95c0,.52,0,1.04.01,1.55,0,.51.02,1.03.05,1.56.03.53.05,1.06.09,1.61.03.55.08,1.1.13,1.66.04.4.09.81.15,1.22l-12.34-12.25h-3.51v17.06h3.58v-6.14c0-.62-.01-1.21-.04-1.76-.02-.56-.05-1.08-.09-1.57-.03-.49-.07-.94-.12-1.35-.05-.41-.09-.79-.13-1.12,0-.06-.01-.1-.02-.15l12.26,12.1h3.56v-17.06h-3.58v4.65Z"/>
        <path d="M731.21,529.82c.61-.45,1.28-.81,2.02-1.05.74-.24,1.49-.37,2.25-.37.93,0,1.76.1,2.5.31.74.2,1.41.47,2.02.82.61.34,1.16.71,1.64,1.12l2.1-2.93c-.55-.49-1.25-.93-2.08-1.34-.84-.4-1.76-.73-2.76-.99-1.01-.25-2.06-.38-3.14-.38-1.41,0-2.74.21-3.99.63-1.24.42-2.33,1.03-3.28,1.81-.94.79-1.68,1.72-2.22,2.78-.54,1.06-.81,2.24-.81,3.52s.26,2.52.79,3.61c.53,1.09,1.26,2.02,2.21,2.8.94.78,2.04,1.38,3.29,1.79,1.25.41,2.59.62,4.02.62,1.17,0,2.27-.15,3.29-.45,1.02-.3,1.94-.67,2.74-1.11.81-.44,1.45-.84,1.94-1.22l-1.75-2.9c-.44.31-.94.64-1.51,1.01-.57.36-1.22.67-1.95.93-.73.25-1.57.38-2.51.38-.86,0-1.7-.11-2.51-.34-.81-.23-1.54-.57-2.19-1.02-.65-.45-1.17-1.02-1.55-1.71-.38-.68-.57-1.47-.57-2.36,0-.84.18-1.6.55-2.28.36-.67.85-1.24,1.46-1.69Z"/>
        <polygon points="758.81 535.21 769 535.21 769 532.09 758.81 532.09 758.81 528.51 770.17 528.51 770.17 525.29 755.23 525.29 755.23 542.35 770.34 542.35 770.34 539.13 758.81 539.13 758.81 535.21"/>
        <path d="M256.82,483.26c-1.22.86-2.61,1.79-4.19,2.8s-3.38,1.87-5.41,2.57c-2.03.7-4.35,1.05-6.96,1.05-2.39,0-4.71-.32-6.96-.95-2.25-.63-4.28-1.58-6.08-2.84-1.8-1.26-3.23-2.84-4.29-4.73-1.06-1.89-1.59-4.08-1.59-6.55,0-2.34.51-4.45,1.52-6.32,1.01-1.87,2.37-3.44,4.06-4.7s3.56-2.23,5.61-2.91c2.05-.68,4.13-1.01,6.25-1.01,2.57,0,4.88.28,6.93.84,2.05.56,3.92,1.32,5.61,2.26s3.21,1.98,4.56,3.11l5.81-8.11c-1.53-1.35-3.46-2.59-5.78-3.72-2.32-1.13-4.88-2.04-7.67-2.74-2.79-.7-5.7-1.05-8.72-1.05-3.92,0-7.6.59-11.05,1.76-3.45,1.17-6.48,2.85-9.09,5.04-2.61,2.19-4.66,4.75-6.15,7.71-1.49,2.95-2.23,6.21-2.23,9.76s.73,6.99,2.2,10c1.46,3.02,3.5,5.61,6.12,7.77,2.61,2.16,5.65,3.82,9.12,4.97,3.47,1.15,7.19,1.72,11.15,1.72,3.24,0,6.29-.42,9.12-1.25s5.37-1.86,7.6-3.07,4.02-2.34,5.37-3.38l-4.87-8.04Z"/>
        <polygon points="310.8 471.95 294.6 451.02 281.56 451.02 305.62 480.71 305.62 498.33 315.83 498.33 315.83 480.12 338.54 451.02 326.57 451.02 310.8 471.95"/>
        <path d="M388.14,476.23c-.54,1.31-1.21,2.84-1.99,4.6-.79,1.76-1.57,3.56-2.33,5.41-.27.65-.5,1.27-.74,1.89-.12-.33-.24-.64-.37-.98-.61-1.51-1.24-3-1.89-4.46-.65-1.46-1.25-2.77-1.79-3.92s-.95-2.04-1.22-2.67l-11.22-25.07h-10.68l21.76,47.31h10.54l21.22-47.31h-10.75l-10.54,25.21Z"/>
        <polygon points="443.97 478.53 472.22 478.53 472.22 469.87 443.97 469.87 443.97 459.94 475.46 459.94 475.46 451.02 434.03 451.02 434.03 498.33 475.94 498.33 475.94 489.41 443.97 489.41 443.97 478.53"/>
        <path d="M548.05,463.93c0,1.44.01,2.87.03,4.29.02,1.42.07,2.86.14,4.32.07,1.47.15,2.95.24,4.46.09,1.51.21,3.04.37,4.6.11,1.11.26,2.25.41,3.4l-34.24-33.98h-9.73v47.31h9.94v-17.03c0-1.71-.03-3.34-.1-4.9-.07-1.56-.15-3.01-.24-4.36s-.2-2.6-.34-3.75-.26-2.19-.37-3.11c-.02-.15-.03-.28-.05-.42l34.01,33.57h9.87v-47.31h-9.94v12.91Z"/>
        <path d="M643.08,477.85c0-.18-.01-.51-.03-.98s-.06-1.04-.1-1.69c-.05-.65-.09-1.32-.14-1.99h-27.98v8.31h17.83c-.15.91-.5,1.78-1.11,2.6-.88,1.2-2.12,2.22-3.72,3.07-1.6.86-3.48,1.51-5.64,1.96-2.16.45-4.48.68-6.96.68s-4.83-.28-7.06-.85c-2.23-.56-4.24-1.44-6.01-2.64-1.78-1.19-3.19-2.77-4.22-4.73-1.04-1.96-1.55-4.31-1.55-7.06,0-2.16.48-4.17,1.45-6.01.97-1.85,2.33-3.45,4.09-4.8,1.76-1.35,3.8-2.41,6.12-3.18,2.32-.77,4.83-1.15,7.54-1.15,2.25,0,4.39.26,6.42.78,2.03.52,3.9,1.21,5.61,2.06,1.71.86,3.29,1.82,4.73,2.91l6.28-7.03c-1.35-1.35-3.17-2.61-5.44-3.78-2.28-1.17-4.88-2.14-7.81-2.91-2.93-.77-6.17-1.15-9.73-1.15-4.28,0-8.25.61-11.89,1.82s-6.83,2.92-9.53,5.1c-2.7,2.19-4.8,4.75-6.29,7.71-1.49,2.95-2.23,6.16-2.23,9.63,0,4.1.73,7.67,2.2,10.71,1.46,3.04,3.48,5.58,6.05,7.6,2.57,2.03,5.58,3.56,9.02,4.6,3.45,1.04,7.15,1.56,11.12,1.56,4.33,0,8.27-.44,11.83-1.32s6.61-2.2,9.16-3.95c2.55-1.76,4.52-3.95,5.91-6.59s2.1-5.73,2.1-9.29Z"/>
        <polygon points="712.29 489.41 680.32 489.41 680.32 478.53 708.57 478.53 708.57 469.87 680.32 469.87 680.32 459.94 711.81 459.94 711.81 451.02 670.38 451.02 670.38 498.33 712.29 498.33 712.29 489.41"/>
        <path d="M775.51,480.52c.69-.26,1.37-.56,2.03-.91,2.63-1.4,4.73-3.28,6.28-5.64,1.56-2.37,2.33-5.04,2.33-8.01s-.69-5.58-2.09-7.85c-1.4-2.25-3.38-4-5.91-5.23-2.55-1.25-5.56-1.86-9.03-1.86h-27.5v47.31h9.8v-16.62h13.03l12.51,16.62,12.04.07-13.49-17.88ZM771.66,472.55c-1.25.61-2.6.91-4.09.91h-16.14v-13.65h16.08c1.49,0,2.86.27,4.12.81,1.26.54,2.26,1.3,3.01,2.29.75,1,1.13,2.14,1.13,3.46s-.38,2.56-1.13,3.65-1.73,1.92-2.97,2.53Z"/>
        <path d="M554.98,286.71l-7.79,2.39-12.94,3.96-8.68,2.67,9.28-4.13,13.32-5.94,7.83-3.5,11.67-5.2,32.12-14.31,35.09-81.26-68.15,56.66-9.52,7.89-6.25,5.2-10.17,8.44-46.32,38.51,15.28,25.43,2.07,3.47c-4.53-2.33-9.05-4.66-13.58-7.01-1.99-1.13-7.66-3.99-12.44-1.84-.37.16-4.01,1.82-3.84,3.65.04.49.39.98,1.15,1.46,0,0-2.89.15-3.71-1.72-.84-1.86.58-4.88.58-4.88,0,0-1.08-1.83,1.38-5.16,2.01-2.75,5.12-5.84,6.17-6.87-.45-1.03-.83-1.97-1.13-2.75l-5.64-7.55-64.52-31.96-9.25-4.58c12.61-22.46,36.37-36.41,62.04-36.41,15.24,0,29.78,4.78,42.05,13.81,1.64,1.22,3.09,2.38,4.44,3.55,2.65,2.28,5.17,4.81,7.51,7.52l.41.48,26.8-20.22-.45-.55c-2.38-2.86-4.82-5.53-7.26-7.92-1.27-1.26-2.62-2.53-4.13-3.88-19.15-17-43.78-26.36-69.36-26.36-57.7,0-104.64,46.94-104.64,104.64s46.94,104.66,104.64,104.66c29.55,0,57.88-12.63,77.71-34.65,3.68-4.52,7.36-9.05,11.05-13.57-.33-.26-.64-.53-.96-.79-3.17-2.59-6.36-5.19-9.53-7.78-2.03-1.65-4.07-3.32-6.1-4.97-2.43-1.99-4.87-3.97-7.29-5.95-5.94-4.85-11.86-9.69-17.8-14.53,12.42,1.15,24.83,2.32,37.25,3.47l3.52-5.53,21.09-33.13-11.33,3.47-11.7,3.59ZM534.28,356.09c-.13.08-.27.15-.41.23-16.91,13.98-31.77,21.46-40.04,23.79-5.3,1.49-10.84,2.35-10.9,2.35-4.56.71-9.23,1.06-13.87,1.06-50.23,0-91.09-40.87-91.09-91.1,0-1.43.03-2.72.09-3.96.03-.83.07-1.65.14-2.47,3.33-47.47,43.24-84.66,90.86-84.66,21.37,0,42.15,7.58,58.52,21.34,1.23,1.02,2.44,2.09,3.6,3.19l-5.23,3.95c-1.33-1.21-2.62-2.3-3.91-3.35-17.48-14.13-38.88-18.52-52.98-18.68-28.17-.32-56.83,16.29-74.23,43.78-1.28-.58-2.56-1.15-3.84-1.73,14.73,15.75,29.47,31.51,44.2,47.28l33.89,10.88-21.78,2.34c8.34,8.73,16.66,17.47,24.99,26.21,8.36-3.01,16.73-6,25.09-9-2.41,7.01-4.84,14.03-7.25,21.04,5.9-.46,11.78-.92,17.68-1.38-.12-5.18-.26-10.36-.39-15.53,2.43,5.4,4.84,10.81,7.26,16.21l-.09.06c-2.1,1.36-5.51,3.5-9.86,5.96l-.13.08c-.55.31-2.01,1.14-3.12,1.71-6.16,3.17-12.73,5.4-19.51,6.64-4.21.78-8.54,1.18-12.89,1.18-32.81,0-61.2-22.26-69.03-54.12-1.21-4.92-1.9-10-2.03-15.09-.01-.62-.03-1.25-.03-1.88,0-8.37,1.45-16.56,4.3-24.34l.14-.37-9.76-11.66-.45.97c-4.7,10.13-7.29,20.94-7.71,32.14-.04,1.08-.07,2.17-.07,3.27,0,1.18.03,2.37.08,3.53,1.86,45.49,39,81.12,84.55,81.12,4.11,0,8.55-.43,8.59-.44.08,0,8.07-.76,14.72-2.39,7.15-1.76,19.97-8.01,34.49-20.28l.84-.71c.37-.29.75-.57,1.12-.86-4.18-7.59-8.37-15.19-12.55-22.78,6,8.82,12,17.64,18,26.46Z"/>
        <path d="M484.74,313.12c0-.09-.08-.17-.17-.17-.06,0-.11.04-.14.09-.12-.07-.25-.12-.38-.12-.32,0-.54.22-.59.27-.24.35-.51.79-.75,1.3-.22.47-.37.9-.48,1.28.22-.51.47-.88.67-1.14.37-.49.56-.53.64-.54.31-.05.45.19.77.11.24-.05.48-.26.52-.51.02-.15-.05-.31-.15-.44.04-.03.07-.07.07-.13Z"/>
      </g>
    </g>
  </g>
</svg>